<?xml version="1.0" standalone="no"?>
<!DOCTYPE svg PUBLIC "-//W3C//DTD SVG 20010904//EN"
 "http://www.w3.org/TR/2001/REC-SVG-20010904/DTD/svg10.dtd">
<svg version="1.0" xmlns="http://www.w3.org/2000/svg"
 width="2134.000000pt" height="2134.000000pt" viewBox="0 0 2134.000000 2134.000000"
 preserveAspectRatio="xMidYMid meet">
<metadata>
Created by potrace 1.16, written by Peter Selinger 2001-2019
</metadata>
<g transform="translate(0.000000,2134.000000) scale(0.100000,-0.100000)"
fill="#000000" stroke="none">
<path d="M1098 14752 c-424 -993 -689 -2046 -787 -3127 -31 -339 -41 -569 -41
-955 0 -386 10 -616 41 -955 135 -1487 585 -2914 1322 -4202 929 -1621 2259
-2951 3880 -3880 1405 -805 2968 -1263 4612 -1353 244 -13 846 -13 1090 0
1488 81 2912 465 4211 1135 2548 1314 4445 3617 5239 6360 219 759 351 1540
395 2350 13 244 13 846 0 1090 -59 1082 -275 2117 -647 3108 -75 200 -190 483
-219 540 l-16 30 -41 -89 c-369 -805 -918 -1669 -1491 -2344 -347 -409 -805
-871 -1201 -1211 -256 -219 -664 -532 -892 -684 l-73 -48 0 -66 c0 -147 -34
-495 -72 -730 -15 -96 -26 -139 -40 -153 -17 -17 -55 -18 -852 -18 l-834 0
-53 -24 c-192 -84 -651 -247 -951 -336 -572 -172 -1072 -276 -1745 -366 l-43
-5 0 -388 c0 -288 -3 -390 -12 -399 -9 -9 -291 -12 -1210 -12 -1173 0 -1198 0
-1208 19 -6 13 -10 157 -10 400 l0 381 -22 4 c-13 3 -79 12 -148 21 -516 65
-1154 206 -1691 373 l-127 39 39 -83 c84 -183 219 -409 354 -590 343 -462 777
-818 1298 -1069 985 -473 2101 -467 3072 17 665 332 1178 830 1541 1498 53 96
88 149 104 157 20 10 277 13 1202 13 647 0 1183 -3 1192 -6 26 -10 19 -52 -35
-231 -407 -1351 -1338 -2543 -2559 -3277 -666 -400 -1346 -641 -2145 -760
-1617 -240 -3087 138 -4380 1129 -952 729 -1602 1617 -1965 2680 -170 501
-283 1098 -316 1673 l-7 122 -131 92 c-310 216 -679 508 -981 776 -168 149
-678 659 -827 827 -504 568 -951 1193 -1316 1840 -105 188 -291 549 -368 718
-32 70 -61 127 -64 127 -3 0 -35 -71 -72 -158z"/>
</g>
</svg>
